<svg width="256" height="256" viewBox="0 0 256 256" fill="none" xmlns="http://www.w3.org/2000/svg">
<g clip-path="url(#clip0_688_2346)">
<path d="M58.3111 0C26.1068 0 0 26.1068 0 58.3111V197.689C0 229.893 26.1068 256 58.3111 256H197.689C229.893 256 256 229.893 256 197.689V58.3111C256 26.1068 229.893 0 197.689 0H58.3111Z" fill="#0E173C"/>
<path fill-rule="evenodd" clip-rule="evenodd" d="M46.0528 65.5436C49.3034 64.5072 52.7788 66.3021 53.8152 69.5528C60.6286 90.9222 74.5294 120.126 93.7772 138.907C103.345 148.243 113.888 154.67 125.215 156.656C136.384 158.616 149.066 156.392 163.35 147.046C166.205 145.178 170.033 145.978 171.902 148.833C173.77 151.688 172.97 155.517 170.115 157.385C153.604 168.188 137.781 171.405 123.08 168.826C108.535 166.274 95.8409 158.184 85.1484 147.75C63.8766 126.994 49.1697 95.656 42.0436 73.306C41.0072 70.0554 42.8021 66.58 46.0528 65.5436Z" fill="#FFD60A"/>
<path fill-rule="evenodd" clip-rule="evenodd" d="M202.664 186.275C203.701 189.525 207.176 191.32 210.427 190.284C213.677 189.248 215.472 185.772 214.436 182.522C207.31 160.172 192.603 128.833 171.331 108.077C160.638 97.6439 147.945 89.5531 133.399 87.0016C118.698 84.4227 102.875 87.6399 86.3648 98.4429C83.5098 100.311 82.7097 104.14 84.5778 106.995C86.4459 109.85 90.2748 110.65 93.1298 108.782C107.413 99.4359 120.095 97.2119 131.265 99.1713C142.591 101.158 153.135 107.585 162.702 116.92C164.181 118.363 165.628 119.867 167.042 121.425C146.412 113.335 128.05 117.767 118.933 123.13C115.992 124.859 115.01 128.646 116.74 131.587C118.47 134.527 122.256 135.509 125.197 133.779C133.775 128.733 159.265 122.819 185.237 148.089C185.611 148.453 186.02 148.761 186.453 149.011C193.622 161.836 199.108 175.122 202.664 186.275Z" fill="#FFD60A"/>
</g>
<defs>
<clipPath id="clip0_688_2346">
<rect width="256" height="256" fill="white"/>
</clipPath>
</defs>
</svg>
